<?xml version="1.0" encoding="iso-8859-1"?>
<!-- Generator: Adobe Illustrator 19.0.0, SVG Export Plug-In . SVG Version: 6.00 Build 0)  -->
<svg version="1.1" id="Capa_1" xmlns="http://www.w3.org/2000/svg" xmlns:xlink="http://www.w3.org/1999/xlink" x="0px" y="0px"
	 viewBox="0 0 515.2 515.2" style="enable-background:new 0 0 515.2 515.2;" xml:space="preserve">
<path style="fill:#FFFFFF;" d="M378.4,308.8v196.8H136.8v-98.4H99.2c-19.2,0-34.4-15.2-34.4-34.4v-75.2H11.2l45.6-118.4V80H46.4
	c-19.2,0-35.2-16-35.2-35.2l0,0c0-19.2,16-35.2,35.2-35.2L300,10.4c43.2,0,77.6,35.2,77.6,78.4"/>
<path style="fill:#193651;" d="M386.4,513.6H128.8v-98.4H99.2c-23.2,0-42.4-19.2-42.4-42.4v-67.2H0l48.8-128V88h-2.4
	c-24,0-43.2-19.2-43.2-43.2s20-43.2,43.2-43.2L300,2.4c47.2,0,85.6,39.2,85.6,86.4h-16c0-38.4-31.2-70.4-69.6-70.4L46.4,17.6
	c-14.4,0-27.2,12-27.2,27.2S31.2,72,46.4,72h18.4v108.8L23.2,289.6h49.6v83.2c0,14.4,12,26.4,26.4,26.4h45.6v98.4h224.8V308.8h16
	v204.8H386.4z"/>
<path style="fill:#FFBF5D;" d="M64.8,345.6v27.2c0,19.2,15.2,34.4,34.4,34.4h37.6v98.4h240.8v-160"/>
<g>
	<path style="fill:#193651;" d="M386.4,513.6H128.8v-98.4H99.2c-23.2,0-42.4-19.2-42.4-42.4v-27.2h16v27.2c0,14.4,12,26.4,26.4,26.4
		h45.6v98.4h224.8v-152h16v168H386.4z"/>
	<rect x="108" y="161.6" style="fill:#193651;" width="27.2" height="16"/>
	<path style="fill:#193651;" d="M188,115.2h-16C172,100,160,88,144.8,88h-88V72h88C168,72,188,91.2,188,115.2z"/>
</g>
<rect x="198.4" y="457.6" style="fill:#193651;" width="16" height="16"/>
<rect x="249.6" y="457.6" style="fill:#193651;" width="16" height="16"/>
<rect x="300.8" y="457.6" style="fill:#193651;" width="16" height="16"/>
<path style="fill:#F15F50;" d="M295.2,184c0-21.6-17.6-38.4-38.4-38.4c-21.6,0-38.4,17.6-38.4,38.4c0,12,5.6,23.2,15.2,30.4
	l-11.2,71.2h70.4l-11.2-71.2C288.8,207.2,295.2,196.8,295.2,184z"/>
<path style="fill:#193651;" d="M464,191.2H260.8c-4.8,0-8-3.2-8-8l0,0c0-4.8,3.2-8,8-8H464c4.8,0,8,3.2,8,8l0,0
	C472,188,468.8,191.2,464,191.2z"/>
<path style="fill:#FFFFFF;" d="M491.2,236.8h-38.4c-8.8,0-16-7.2-16-16v-74.4c0-8.8,7.2-16,16-16h38.4c8.8,0,16,7.2,16,16v74.4
	C507.2,229.6,500,236.8,491.2,236.8z"/>
<path style="fill:#193651;" d="M491.2,244.8h-38.4c-13.6,0-24-10.4-24-24v-74.4c0-13.6,10.4-24,24-24h38.4c13.6,0,24,10.4,24,24
	v74.4C515.2,233.6,504.8,244.8,491.2,244.8z M453.6,138.4c-4.8,0-8,3.2-8,8v74.4c0,4.8,3.2,8,8,8H492c4.8,0,8-3.2,8-8v-74.4
	c0-4.8-3.2-8-8-8L453.6,138.4L453.6,138.4z"/>
<g>
</g>
<g>
</g>
<g>
</g>
<g>
</g>
<g>
</g>
<g>
</g>
<g>
</g>
<g>
</g>
<g>
</g>
<g>
</g>
<g>
</g>
<g>
</g>
<g>
</g>
<g>
</g>
<g>
</g>
</svg>
