<svg height="512" viewBox="0 0 64 64" width="512" xmlns="http://www.w3.org/2000/svg"><g id="Filled_outline" data-name="Filled outline"><path d="m23 26h18v19h-18z" fill="#ffd782"/><path d="m37.684 41.949-5.684-1.895-5.684 1.895-.632-1.898 6.316-2.105 6.316 2.105z" fill="#394d5c"/><path d="m26 29h2v2h-2z" fill="#394d5c"/><path d="m36 29h2v2h-2z" fill="#394d5c"/><path d="m31 32h2v4h-2z" fill="#394d5c"/><path d="m23 37a4 4 0 0 1 0-8z" fill="#f9bb4b"/><path d="m41 29a4 4 0 0 1 0 8z" fill="#f9bb4b"/><path d="m3 45h58v16h-58z" fill="#ad6327"/><path d="m23 20h18v6h-18z" fill="#394d5c"/><path d="m29 12h6a8 8 0 0 1 8 8 0 0 0 0 1 0 0h-22a0 0 0 0 1 0 0 8 8 0 0 1 8-8z" fill="#ceac9a"/><path d="m30 7h4v5h-4z" fill="#995f5b"/><path d="m11 3h-4v42h4v-21h12v-4h-12z" fill="#995f5b"/><path d="m53 3v17h-12v4h12v21h4v-42z" fill="#995f5b"/><path d="m31 16h2v4h-2z" fill="#f4f4e6"/><path d="m36 16h2v4h-2z" fill="#f4f4e6"/><path d="m26 16h2v4h-2z" fill="#f4f4e6"/><path d="m12 50h12a0 0 0 0 1 0 0v4a2 2 0 0 1 -2 2h-8a2 2 0 0 1 -2-2v-4a0 0 0 0 1 0 0z" fill="#ffd782"/><path d="m15 53h2v3h-2z" fill="#f9bb4b"/><path d="m19 53h2v3h-2z" fill="#f9bb4b"/><path d="m41 50h12a0 0 0 0 1 0 0v4a2 2 0 0 1 -2 2h-8a2 2 0 0 1 -2-2v-4a0 0 0 0 1 0 0z" fill="#ffd782"/><path d="m44 53h2v3h-2z" fill="#f9bb4b"/><path d="m48 53h2v3h-2z" fill="#f9bb4b"/><g fill="#66342e"><path d="m6 48h2v2h-2z"/><path d="m6 56h2v2h-2z"/><path d="m56 48h2v2h-2z"/><path d="m56 56h2v2h-2z"/><path d="m24 49h7v2h-7z"/><path d="m33 52h8v2h-8z"/><path d="m27 56h9v2h-9z"/><path d="m34 48h4v2h-4z"/><path d="m11 3h42v4h-42z"/></g><path d="m25.684 40.051.632 1.898 5.684-1.895 5.684 1.895.632-1.898-6.316-2.105z"/><path d="m26 29h2v2h-2z"/><path d="m36 29h2v2h-2z"/><path d="m31 32h2v4h-2z"/><path d="m58 2h-52v42h-4v18h60v-18h-4zm-4 2h2v40h-2v-21h-12v-2h12zm-42 15v-11h17v3a9.01 9.01 0 0 0 -8.941 8zm31.941 0a9.01 9.01 0 0 0 -8.941-8v-3h17v11zm-5.941 0v-3h-2v3h-3v-3h-2v3h-3v-3h-2v3h-3.929a7.011 7.011 0 0 1 6.929-6h6a7.011 7.011 0 0 1 6.929 6zm-5-8h-2v-3h2zm-9 10h16v4h-16zm18 9.171a3 3 0 0 1 0 5.658zm-20 5.658a3 3 0 0 1 0-5.658zm0-7.729a5 5 0 0 0 0 9.8v6.1h-10v-19h10zm2-1.1h16v17h-16zm18 10.9a5 5 0 0 0 0-9.8v-3.1h10v19h-10zm-30-33.9h40v2h-40zm-4 0h2v17h12v2h-12v21h-2zm52 42v14h-56v-14z"/><path d="m40 50v2h-7v2h7a3 3 0 0 0 3 3h8a3 3 0 0 0 3-3v-4a1 1 0 0 0 -1-1h-12a1 1 0 0 0 -1 1zm2 1h10v3a1 1 0 0 1 -1 1h-1v-2h-2v2h-2v-2h-2v2h-1a1 1 0 0 1 -1-1z"/><path d="m6 48h2v2h-2z"/><path d="m6 56h2v2h-2z"/><path d="m56 48h2v2h-2z"/><path d="m56 56h2v2h-2z"/><path d="m31 51v-2h-19a1 1 0 0 0 -1 1v4a3 3 0 0 0 3 3h8a3 3 0 0 0 3-3v-3zm-8 3a1 1 0 0 1 -1 1h-1v-2h-2v2h-2v-2h-2v2h-1a1 1 0 0 1 -1-1v-3h10z"/><path d="m27 56h9v2h-9z"/><path d="m34 48h4v2h-4z"/></g></svg>