<?xml version="1.0" encoding="iso-8859-1"?>
<!-- Generator: Adobe Illustrator 19.0.0, SVG Export Plug-In . SVG Version: 6.00 Build 0)  -->
<svg version="1.1" id="Layer_1" xmlns="http://www.w3.org/2000/svg" xmlns:xlink="http://www.w3.org/1999/xlink" x="0px" y="0px"
	 viewBox="0 0 505.497 505.497" style="enable-background:new 0 0 505.497 505.497;" xml:space="preserve">
<g transform="translate(1 1)">
	<path style="fill:#F2EDDA;" d="M362.728,286.47c-12.8,54.613-41.813,128-110.933,128s-98.133-72.533-110.933-128
		c17.067,17.067,59.733,25.6,59.733,25.6s0-34.133,51.2-42.667c51.2,8.533,51.2,42.667,51.2,42.667S345.662,303.537,362.728,286.47"
		/>
	<path style="fill:#AE938D;" d="M260.328,107.27h-59.733h-34.133h-25.6h-17.067c8.533-68.267,76.8-123.733,128-93.867
		c52.053-29.867,119.467,25.6,128,93.867h-17.067h-25.6h-34.133H260.328z M166.462,107.27
		c-34.133,59.733-34.133,119.467-34.133,119.467s0.853,26.453,8.533,59.733c11.947,54.613,41.813,128,110.933,128
		s98.133-73.387,110.933-128c7.68-33.28,8.533-59.733,8.533-59.733s0-59.733-34.133-119.467h42.667c0,0-8.533,12.8,0,34.133
		c0,0,17.067,42.667,17.067,93.867c0,34.133-8.533,51.2-8.533,85.333s8.533,68.267,8.533,68.267l8.533,25.6v2.56
		c-14.507-1.707-30.72-2.56-51.2-2.56c0,0-0.853,0.853-2.56,1.707c-11.093,7.68-49.493,31.573-99.84,31.573
		c-59.733,0-102.4-34.133-102.4-34.133c-19.627,0-36.693,0.853-51.2,2.56v-2.56l8.533-25.6c0,0,8.533-34.133,8.533-68.267
		s-8.533-51.2-8.533-85.333c0-51.2,8.533-81.067,17.067-93.867s0-34.133,0-34.133h42.667V107.27z"/>
	<g>
		<path style="fill:#ECF4F7;" d="M351.635,416.177c1.707-0.853,2.56-1.707,2.56-1.707c19.627,0,36.693,0.853,51.2,2.56
			c71.68,8.533,79.36,36.693,85.333,57.173l8.533,25.6H354.195h-59.733c5.973-21.333,15.36-37.547,24.747-50.347
			C332.008,431.537,345.662,420.443,351.635,416.177C351.635,417.03,351.635,416.177,351.635,416.177"/>
		<path style="fill:#ECF4F7;" d="M350.782,416.177c-5.973,4.267-19.627,14.507-32.427,32.427
			c-34.133,17.067-67.413,50.347-67.413,50.347H3.475l8.533-25.6c6.827-21.333,14.507-48.64,85.333-57.173
			c14.507-1.707,30.72-2.56,51.2-2.56c0,0,42.667,34.133,102.4,34.133C302.141,448.603,340.541,423.857,350.782,416.177"/>
		<path style="fill:#ECF4F7;" d="M319.208,449.457c-9.387,12.8-18.773,29.867-24.747,50.347h-42.667
			C251.795,499.803,285.075,466.523,319.208,449.457"/>
	</g>
	<path style="fill:#FFD0A1;" d="M200.595,107.27h59.733h42.667h34.133c34.133,59.733,34.133,119.467,34.133,119.467
		s-0.853,26.453-8.533,59.733c-17.067,17.067-59.733,25.6-59.733,25.6s0-34.133-51.2-42.667c-51.2,8.533-51.2,42.667-51.2,42.667
		s-42.667-8.533-59.733-25.6c-7.68-33.28-8.533-59.733-8.533-59.733s0-59.733,34.133-119.467H200.595z"/>
</g>
<path style="fill:#51565F;" d="M500.262,505.07c-1.707,0-3.413-0.853-4.267-2.56l-9.387-27.307
	c-7.68-23.04-17.92-54.613-129.707-54.613c0,0,0,0-0.853,0c-3.413,2.56-17.067,11.947-31.573,29.867c0,0.853-0.853,2.56-2.56,3.413
	c-9.387,12.8-17.92,28.16-23.04,48.64c-0.853,2.56-3.413,3.413-5.12,2.56c-2.56-0.853-3.413-3.413-2.56-5.12
	c4.267-14.507,9.387-26.453,15.36-36.693c-27.307,17.067-50.347,40.96-51.2,40.96c-1.707,1.707-4.267,1.707-5.973,0
	c-1.707-1.707-1.707-4.267,0-5.973c1.707-1.707,33.28-33.28,67.413-51.2c17.067-23.04,34.987-34.133,35.84-34.987
	c0.853-0.853,2.56-0.853,4.267-0.853c118.613,0,130.56,36.693,138.24,60.587l9.387,27.307c0.853,2.56-0.853,4.267-2.56,5.12
	C501.115,505.07,501.115,505.07,500.262,505.07z M5.328,505.07c-0.853,0-0.853,0-1.707,0c-2.56-0.853-3.413-3.413-2.56-5.12
	l9.387-27.307c8.533-25.6,20.48-60.587,139.947-60.587c2.56,0,4.267,1.707,4.267,4.267c0,2.56-1.707,4.267-4.267,4.267
	c-113.493,0-123.733,30.72-132.267,55.467l-9.387,27.307C8.741,504.216,7.035,505.07,5.328,505.07z M355.195,505.07
	c-2.56,0-4.267-1.707-4.267-4.267c0-1.707,0-35.84,17.92-62.293c1.707-1.707,4.267-2.56,5.973-0.853
	c1.707,1.707,2.56,4.267,0.853,5.973c-16.213,23.893-16.213,57.173-16.213,57.173C359.462,503.363,357.755,505.07,355.195,505.07z
	 M252.795,419.737c-113.493,0-123.733-184.32-123.733-192c0-2.56,1.707-4.267,4.267-4.267s4.267,1.707,4.267,4.267
	c0,0.853,1.707,26.453,8.533,58.027c13.653,11.947,40.96,19.627,52.053,22.187c2.56-11.093,11.947-34.987,53.76-41.813
	c0.853,0,0.853,0,1.707,0c41.813,6.827,52.053,30.72,53.76,41.813c11.093-2.56,38.4-10.24,52.053-22.187
	c6.827-31.573,8.533-57.173,8.533-58.027c0-2.56,1.707-4.267,4.267-4.267s4.267,1.707,4.267,4.267
	C376.528,235.416,366.288,419.737,252.795,419.737z M149.541,298.563c13.653,52.053,42.667,112.64,103.253,112.64
	s90.453-61.44,103.253-112.64c-20.48,12.8-50.347,18.773-51.2,18.773c-0.853,0-2.56,0-3.413-0.853
	c-0.853-0.853-1.707-1.707-1.707-3.413c0-0.853-0.853-30.72-46.933-38.4c-46.08,7.68-46.933,37.547-46.933,38.4
	s-0.853,2.56-1.707,3.413c-0.853,0.853-2.56,0.853-3.413,0.853C199.035,316.483,169.168,310.51,149.541,298.563z M397.862,394.137
	c-1.707,0-3.413-1.707-4.267-3.413c0-1.707-8.533-34.987-8.533-69.12c0-17.067,2.56-30.72,4.267-43.52
	c2.56-12.8,4.267-25.6,4.267-41.813c0-49.493-16.213-92.16-17.067-92.16c-0.853-2.56,0-4.267,2.56-5.12
	c2.56-0.853,4.267,0,5.12,2.56c0.853,1.707,17.067,44.373,17.067,95.573c0,17.067-2.56,30.72-4.267,43.52
	c-2.56,12.8-4.267,25.6-4.267,41.813c0,33.28,8.533,66.56,8.533,67.413c0.853,2.56-0.853,4.267-3.413,5.12
	C398.715,394.137,397.862,394.137,397.862,394.137z M107.728,394.137h-0.853c-2.56-0.853-3.413-2.56-3.413-5.12
	c0,0,8.533-34.133,8.533-67.413c0-17.067-1.707-29.013-4.267-41.813c-2.56-12.8-4.267-25.6-4.267-43.52
	c0-51.2,17.067-93.867,17.067-95.573c0.853-2.56,3.413-3.413,5.12-2.56c1.707,0.853,3.413,3.413,2.56,5.12
	c0,0-17.067,42.667-17.067,92.16c0,17.067,1.707,29.013,4.267,41.813c2.56,12.8,4.267,25.6,4.267,43.52
	c0,34.133-8.533,68.267-8.533,69.12C111.141,392.43,109.435,394.137,107.728,394.137z M269.862,317.337h-34.133
	c-2.56,0-4.267-1.707-4.267-4.267s1.707-4.267,4.267-4.267h34.133c2.56,0,4.267,1.707,4.267,4.267S272.422,317.337,269.862,317.337z
	 M303.995,206.403c-2.56,0-4.267-1.707-4.267-4.267v-5.973l-12.8-0.853c-2.56,0-4.267-2.56-4.267-4.267
	c0-2.56,1.707-4.267,4.267-4.267l17.067,0.853l0,0l17.067,0.853c2.56,0,4.267,2.56,4.267,4.267c0,2.56-1.707,4.267-4.267,4.267
	l-12.8-0.853v5.12C308.262,204.696,306.555,206.403,303.995,206.403z M201.595,206.403c-2.56,0-4.267-1.707-4.267-4.267v-5.12
	l-12.8,0.853c-2.56,0-4.267-1.707-4.267-4.267s1.707-4.267,4.267-4.267l17.067-0.853l0,0l17.067-0.853
	c2.56,0,4.267,1.707,4.267,4.267s-1.707,4.267-4.267,4.267l-12.8,0.853v5.973C205.862,204.696,204.155,206.403,201.595,206.403z
	 M329.595,129.603c-0.853,0-1.707,0-1.707-0.853c-1.707-0.853-2.56-3.413-1.707-5.973l5.12-11.093h-24.747l-7.68,14.507
	c-0.853,1.707-3.413,2.56-5.973,1.707c-1.707-0.853-2.56-3.413-1.707-5.973l5.12-11.093h-35.84l0,0h-52.907l5.12,11.093
	c0.853,1.707,0,4.267-1.707,5.973c-1.707,0.853-4.267,0-5.973-1.707l-7.68-14.507h-29.013l-7.68,14.507
	c-0.853,1.707-3.413,2.56-5.973,1.707c-1.707-0.853-2.56-3.413-1.707-5.973l5.12-11.093h-35.84l0,0h-17.067
	c-2.56,0-4.267-1.707-4.267-4.267s1.707-4.267,4.267-4.267h13.653c5.973-40.107,32.427-76.8,66.56-93.867
	c23.04-11.093,46.08-11.093,64.853-0.853c19.627-10.24,42.667-10.24,65.707,0.853c33.28,16.213,59.733,53.76,65.707,93.867h13.653
	c2.56,0,4.267,1.707,4.267,4.267s-1.707,4.267-4.267,4.267h-17.067l0,0h-40.107l-7.68,14.507
	C333.008,128.75,331.302,129.603,329.595,129.603z M344.955,104.003h30.72c-5.973-36.693-29.867-70.827-61.44-86.187
	c-20.48-10.24-41.813-10.24-59.733,0c-1.707,0.853-3.413,0.853-4.267,0c-17.067-10.24-38.4-10.24-58.88,0
	c-30.72,15.36-55.467,49.493-61.44,86.187h37.547l0,0h27.307l-5.12-11.093c-0.853-1.707,0-4.267,1.707-5.973
	c1.707-0.853,4.267,0,5.973,1.707l7.68,14.507h50.347l-5.12-11.093c-0.853-1.707,0-4.267,1.707-5.973
	c1.707-0.853,4.267,0,5.973,1.707l7.68,14.507h40.107l0,0h31.573l7.68-14.507c0.853-1.707,3.413-2.56,5.973-1.707
	c1.707,0.853,2.56,3.413,1.707,5.973L344.955,104.003z"/>
<g>
</g>
<g>
</g>
<g>
</g>
<g>
</g>
<g>
</g>
<g>
</g>
<g>
</g>
<g>
</g>
<g>
</g>
<g>
</g>
<g>
</g>
<g>
</g>
<g>
</g>
<g>
</g>
<g>
</g>
</svg>
